PathFileType	4	(X/Y/Z)	Patient4_TMGait_0pt3_02_right_23.trc.trc
DataRate	CameraRate	NumFrames	NumMarkers	Units	OrigDataRate	OrigDataStartFrame	OrigNumFrames
50.541516245487	50.541516245487	5	33	mm	50.541516245487	89	       141
Frame#	Time	Sacral			L.Shoulder			Chest			R.Shoulder			Neck			R.ASIS			L.ASIS			R.Thigh.Superior			R.Thigh.Lateral			R.Thigh.Inferior			R.Patella			L.Thigh.Superior			L.Thigh.Lateral			L.Thigh.Inferior			L.Patella			L.Shank.Superior			L.Shank.Lateral			L.Shank.Inferior			R.Shank.Superior			R.Shank.Lateral			R.Shank.Inferior			R.Heel			R.Midfoot.Superior			R.Midfoot.Lateral			R.Toe			L.Heel			L.Midfoot.Lateral			L.Midfoot.Superior			L.Toe			L.Elbow			L.Wrist			R.Elbow			R.Wrist			
		X1	Y1	Z1	X2	Y2	Z2	X3	Y3	Z3	X4	Y4	Z4	X5	Y5	Z5	X6	Y6	Z6	X7	Y7	Z7	X8	Y8	Z8	X9	Y9	Z9	X10	Y10	Z10	X11	Y11	Z11	X12	Y12	Z12	X13	Y13	Z13	X14	Y14	Z14	X15	Y15	Z15	X16	Y16	Z16	X17	Y17	Z17	X18	Y18	Z18	X19	Y19	Z19	X20	Y20	Z20	X21	Y21	Z21	X22	Y22	Z22	X23	Y23	Z23	X24	Y24	Z24	X25	Y25	Z25	X26	Y26	Z26	X27	Y27	Z27	X28	Y28	Z28	X29	Y29	Z29	X30	Y30	Z30	X31	Y31	Z31	X32	Y32	Z32	X33	Y33	Z33	

89	45.851142857143	790.928111821218	1006.629341394797	444.546427308492	940.425733900067	1418.546889689862	218.434381690591	1067.333962612114	1359.425668983678	365.911995031248	1012.999587945549	1447.285964695509	543.561998273544	944.883277875115	1491.744349609029	370.049301441872	1029.724720459880	937.897433207970	537.246246338515	987.790487215530	955.003240082680	265.502974413908	1046.605896065506	727.856168950647	516.542182745188	961.502415928331	625.824073067539	589.084286724046	1028.803488736881	561.205238982897	509.257944961245	1014.729347687228	457.573903560233	530.105333009911	1058.814029054937	758.636644458307	303.475192994252	985.298093377154	630.929611490561	247.831747500004	1080.536512015055	565.964690661320	310.702491725705	1089.175206830706	494.641968699593	320.223467109319	1062.781519282232	419.558032355070	314.956949767989	975.414780887088	302.956380053375	264.364412666879	1026.617813636618	193.443409987366	337.789041069378	942.096281065519	390.209652644782	542.474464111604	830.855323119051	340.748320329706	613.423711167950	818.960041698084	232.030621243638	561.841510497822	618.361413778695	145.483079901048	553.271673851784	796.849889443197	115.027914671997	577.183306313259	693.272918672869	98.160977022544	620.175449731536	879.054475834752	32.953107185297	593.669542081737	898.022837871816	38.642423844899	378.358534779139	974.579383583361	35.365529793977	300.099219771747	1057.178798021204	96.764197741079	329.545754813213	1186.147694306237	44.843265656392	305.927746613777	868.865823242084	1069.714158891090	121.291165494445	905.740569438692	811.240785941285	138.774961577137	1190.245159681135	1160.720685104818	663.665129622267	1443.524272466396	1174.083776483956	615.320336267704	
90	45.870928571429	790.415108641927	1006.562313205601	438.744905872452	940.885838385582	1419.303668328111	214.407089047569	1066.091500041167	1360.638679788445	363.440772988446	1009.376319502179	1448.250741433039	540.501453544472	943.452862750831	1492.612139979964	366.143916505208	1028.506575842827	939.011173488578	533.623614155542	989.009612936262	955.834662751604	261.573566281365	1050.482197728812	730.280253684006	512.752877703846	968.026254214276	626.736975773160	585.328939399545	1037.284169574133	563.083249604081	505.762070591896	1024.516736952332	458.144984329542	527.642145255008	1058.441872091845	757.758900704261	299.531473594153	983.549087331625	630.588040334822	244.853880279155	1077.829909337673	564.972025303940	308.258042920474	1085.700996815556	493.830576021371	318.349536129124	1058.954858676535	418.870045667441	313.329602361400	971.190501356092	302.453008339267	262.973425766187	1021.308860363169	193.027635088774	337.204534822426	950.054817671059	391.643682127738	540.006138329389	836.939749330280	345.954498967399	610.399207701678	822.838211036528	236.897803080908	560.056573296490	620.458735086609	158.536541759075	550.758958338570	796.981243554745	118.887619775347	576.288118879330	692.289275544988	107.786605768595	618.396235531636	873.861368061910	32.149962234534	593.672378503548	892.053864671092	38.669913628735	378.297801834163	968.608402164433	35.329129947285	300.043621182538	1051.266513350246	96.626845473973	329.479767170759	1180.235177603165	44.543695003951	305.902563358905	880.918075388250	1068.743736288106	113.947246649308	922.097749167607	810.960299889721	129.236058612914	1178.441704463798	1155.417342351942	662.117758796943	1432.874322007963	1155.882193103084	617.286824020324	
91	45.890714285714	789.796250877377	1006.375631884640	433.088211362001	941.239810660477	1420.116382313835	210.675431669339	1064.655963138709	1361.801418020026	361.259275222955	1005.485145116847	1449.012507759285	537.738215645920	941.890122030400	1493.401514994419	362.596982052401	1027.155191072118	940.094005763606	530.104826030269	990.087916064346	956.603633737280	257.798718226680	1054.420813772611	732.869963250107	508.940325501561	974.798856817626	627.804046918704	581.610369697912	1045.930750131354	565.239407567217	502.185993564976	1034.577762623711	459.043900124779	525.012046807033	1058.006142731907	756.902752912033	295.882809036839	981.893593601264	630.224231801219	242.036690742431	1075.227239487552	564.003772303809	306.009293862237	1082.368230705585	493.007442406809	316.624764404154	1055.234196831942	418.180494144665	311.833001526422	967.055740983998	301.985389416120	261.668865406068	1016.036908718173	192.623606535454	336.683659514569	958.374600656741	393.299928962294	537.371189555106	843.477934637603	351.373065317201	607.143064920204	827.225131877476	242.043201974625	558.002065612009	623.410393735205	171.750093267977	547.600986055159	797.663513540625	123.310032801497	575.149568148091	692.002150837233	117.896536332848	616.183074011758	869.232307156985	31.528258022487	593.807341176831	886.096870442641	38.710962935940	378.234547034915	962.652712064569	35.313207261169	299.998192911358	1045.372151460667	96.506228218811	329.424597903837	1174.334684378610	44.247068608720	305.884785580605	893.419842975027	1068.103458746459	107.175156965307	939.337499522098	811.215310416756	120.442570642138	1165.371395866417	1149.663039514280	660.753050370835	1420.184573379370	1135.974146505987	619.700900895894	
92	45.910500000000	789.060757733281	1006.042100109349	427.588256612936	941.505020223698	1420.952505868653	207.249556782872	1063.049226291233	1362.861755725122	359.366043275297	1001.358316979748	1449.500566829564	535.277949193610	940.217615578579	1494.068868028211	359.417542737143	1025.683293390465	941.106782147949	526.692641858378	991.016567326478	957.256778628115	254.179609070182	1058.313327754177	735.571140099786	505.141997283617	981.654994941956	629.017052538036	577.979845337124	1054.554949684700	567.636684082849	498.599579078942	1044.717920477328	460.252508723808	522.289567019485	1057.551335187372	756.060373217525	292.514470972704	980.405824955966	629.805851195847	239.370876772045	1072.846101700716	563.048340412583	303.919339294290	1079.318163499045	492.147287721087	315.005393542294	1051.730510861765	417.452832436580	310.441801891182	963.068881279422	301.548318320187	260.444679881825	1010.853672718738	192.223757350118	336.217372073560	966.895787544737	395.142150990924	534.647972524230	850.315717294952	356.864734207438	603.711588343197	832.055401883496	247.310711597127	555.736875564167	627.145372116589	184.589212351770	543.849535471150	798.976499940154	128.170174783722	573.799010277513	692.489440413765	128.100637790993	613.580021332057	865.489315792838	31.226952948595	594.107759549925	880.151691874947	38.766634701139	378.168502717368	956.711829682803	35.316179357864	299.962120927528	1039.497338673769	96.403377036471	329.376930530177	1168.445670389297	43.953642145046	305.873010459254	906.173391039010	1067.838468435679	100.987841560655	957.431674657236	812.109907986130	112.489471638966	1151.113653080652	1143.516031110102	659.488393666075	1405.310030494412	1114.389802869245	622.536164641451	
93	45.930285714286	788.189255663004	1005.529164738416	422.255121540238	941.699095582431	1421.760454812472	204.131738772329	1061.293431631366	1363.757416999727	357.754681587899	997.031252606895	1449.647637036279	533.117431817129	938.457837752430	1494.565313812041	356.598688960469	1024.099442021947	942.000742468968	523.394869707104	991.786845291532	957.737733966814	250.717533691803	1062.058343654664	738.314761190505	501.412963552664	988.432256769405	630.345977506615	574.497731399164	1062.983886655539	570.216812836907	495.088093888464	1054.761098652140	461.732838214715	519.565942897802	1057.119402770787	755.215911814309	289.397354370600	979.147824879009	629.297622663566	236.841927552885	1070.793297403710	562.088173962644	301.944407251485	1076.678158199647	491.221357578279	313.441818039415	1048.543487984970	416.646610460245	309.124353410096	959.277566692782	301.132074489253	259.292507955055	1005.804371185622	191.817285472812	335.792681831826	975.483137514282	397.111942716816	531.937291005698	857.327094586566	362.247985340330	600.193071809740	837.297479774778	252.496651207055	553.351036499317	631.598405399533	196.454567213354	539.637749686121	801.046123135477	133.269730900091	572.302360624805	693.861501812141	137.925925385271	610.689057449456	863.025972432712	31.368353424574	594.600025671006	874.216749661242	38.837136963922	378.099237046844	950.784204225169	35.334849155538	299.933794614375	1033.642544783647	96.317760455288	329.332719685503	1162.566558949226	43.664241327332	305.865923043930	918.982368346993	1067.955438529564	95.376176491999	976.313539826845	813.715178278050	105.445020786035	1135.779390574367	1137.047461906109	658.251931194405	1388.104373072421	1091.234429586130	625.759268878160	
